<mxfile host="app.diagrams.net" modified="2020-10-06T13:42:20.443Z" agent="5.0 (X11; Linux x86_64) AppleWebKit/537.36 (KHTML, like Gecko) Chrome/87.0.4278.0 Safari/537.36" etag="jp2AktWvIXGM-UtDouMY" version="13.7.7" type="github">
  <diagram id="k6g9_XQ5uYxUgiT9TVjg" name="Page-1">
    <mxGraphModel dx="2272" dy="775" grid="1" gridSize="10" guides="1" tooltips="1" connect="1" arrows="1" fold="1" page="1" pageScale="1" pageWidth="850" pageHeight="1100" math="0" shadow="0">
      <root>
        <mxCell id="0" />
        <mxCell id="1" parent="0" />
        <UserObject label="&lt;b&gt;%machine_name%&lt;/b&gt;" machine_name="ROUTER.FAKENET.SYSTEMS" primary_nic="" primary_ip="" primary_mac="" range_nic="" range_ip="" range_mac="" undefined="" placeholders="1" id="J6-tEv_VgUpMAA3_UNjC-1">
          <mxCell style="points=[[0.5,0,0],[1,0.5,0],[0.5,1,0],[0,0.5,0],[0.145,0.145,0],[0.8555,0.145,0],[0.855,0.8555,0],[0.145,0.855,0]];verticalLabelPosition=bottom;html=1;verticalAlign=top;aspect=fixed;align=center;pointerEvents=1;shape=mxgraph.cisco19.rect;prIcon=router;fillColor=#FAFAFA;strokeColor=#005073;fontFamily=Courier New;labelBackgroundColor=#000000;fontColor=#FFFFFF;fontStyle=1;fontSize=14;" vertex="1" parent="1">
            <mxGeometry x="591.5" y="20" width="50" height="50" as="geometry" />
          </mxCell>
        </UserObject>
        <UserObject label="&lt;b&gt;%machine_name%&lt;/b&gt;" machine_name="ROUTER.DEFENDED01.DRAGONSLAIR.SYSTEMS" primary_nic="" primary_ip="" primary_mac="" range_nic="" range_ip="" range_mac="" undefined="" placeholders="1" id="J6-tEv_VgUpMAA3_UNjC-2">
          <mxCell style="points=[[0.5,0,0],[1,0.5,0],[0.5,1,0],[0,0.5,0],[0.145,0.145,0],[0.8555,0.145,0],[0.855,0.8555,0],[0.145,0.855,0]];verticalLabelPosition=bottom;html=1;verticalAlign=top;aspect=fixed;align=center;pointerEvents=1;shape=mxgraph.cisco19.rect;prIcon=router;fillColor=#FAFAFA;strokeColor=#005073;fontFamily=Courier New;labelBackgroundColor=#000000;fontColor=#FFFFFF;fontStyle=1;fontSize=14;" vertex="1" parent="1">
            <mxGeometry x="249.5" y="153" width="50" height="50" as="geometry" />
          </mxCell>
        </UserObject>
        <UserObject label="&lt;b&gt;%machine_name%&lt;/b&gt;" machine_name="DMZ.DEFENDED01.DRAGONSLAIR.SYSTEMS" primary_nic="" primary_ip="" primary_mac="" range_nic="" range_ip="" range_mac="" undefined="" placeholders="1" id="J6-tEv_VgUpMAA3_UNjC-3">
          <mxCell style="points=[[0.5,0,0],[1,0.5,0],[0.5,1,0],[0,0.5,0],[0.145,0.145,0],[0.8555,0.145,0],[0.855,0.8555,0],[0.145,0.855,0]];verticalLabelPosition=bottom;html=1;verticalAlign=top;aspect=fixed;align=center;pointerEvents=1;shape=mxgraph.cisco19.rect;prIcon=router;fillColor=#FAFAFA;strokeColor=#005073;fontFamily=Courier New;labelBackgroundColor=#000000;fontColor=#FFFFFF;fontStyle=1;fontSize=14;" vertex="1" parent="1">
            <mxGeometry x="70" y="286" width="50" height="50" as="geometry" />
          </mxCell>
        </UserObject>
        <UserObject label="&lt;b&gt;%machine_name%&lt;/b&gt;" machine_name="SERVERS.DEFENDED01.DRAGONSLAIR.SYSTEMS" primary_nic="" primary_ip="" primary_mac="" range_nic="" range_ip="" range_mac="" undefined="" placeholders="1" id="J6-tEv_VgUpMAA3_UNjC-4">
          <mxCell style="points=[[0.5,0,0],[1,0.5,0],[0.5,1,0],[0,0.5,0],[0.145,0.145,0],[0.8555,0.145,0],[0.855,0.8555,0],[0.145,0.855,0]];verticalLabelPosition=bottom;html=1;verticalAlign=top;aspect=fixed;align=center;pointerEvents=1;shape=mxgraph.cisco19.rect;prIcon=router;fillColor=#FAFAFA;strokeColor=#005073;fontFamily=Courier New;labelBackgroundColor=#000000;fontColor=#FFFFFF;fontStyle=1;fontSize=14;" vertex="1" parent="1">
            <mxGeometry x="412" y="286" width="50" height="50" as="geometry" />
          </mxCell>
        </UserObject>
        <UserObject label="&lt;b&gt;%machine_name%&lt;br&gt;&lt;br&gt;&lt;p&gt;%primary_nic%&lt;br&gt;%primary_ip%&lt;br&gt;%primary_mac%&lt;br&gt;&lt;br&gt;%range_nic%&lt;br&gt;%range_ip%&lt;br&gt;%range_mac%&lt;/b&gt;" machine_name="WEB01" primary_nic="DMZ" primary_ip="72.15.1.1/24" primary_mac="00:50:56:0f:01:01" range_nic="RANGE" range_ip="192.168.0.2" range_mac="00:50:56:a8:00:02" placeholders="1" id="J6-tEv_VgUpMAA3_UNjC-5">
          <mxCell style="pointerEvents=1;shadow=0;dashed=0;html=1;strokeColor=none;fillColor=#505050;labelPosition=right;verticalLabelPosition=center;verticalAlign=top;outlineConnect=0;align=center;shape=mxgraph.office.servers.virtual_server;rounded=1;comic=1;labelBackgroundColor=#000000;fontFamily=Courier New;fontSize=14;fontColor=#FFFFFF;dropTarget=0;" vertex="1" parent="1">
            <mxGeometry x="53" y="419" width="28" height="52" as="geometry" />
          </mxCell>
        </UserObject>
        <UserObject label="&lt;b&gt;%machine_name%&lt;br&gt;&lt;br&gt;&lt;p&gt;%primary_nic%&lt;br&gt;%primary_ip%&lt;br&gt;%primary_mac%&lt;br&gt;&lt;br&gt;%range_nic%&lt;br&gt;%range_ip%&lt;br&gt;%range_mac%&lt;/b&gt;" machine_name="DC01" primary_nic="SERVERS" primary_ip="72.15.2.1/24" primary_mac="00:50:56:0f:02:01" range_nic="RANGE" range_ip="192.168.0.3" range_mac="00:50:56:a8:00:03" placeholders="1" id="J6-tEv_VgUpMAA3_UNjC-6">
          <mxCell style="pointerEvents=1;shadow=0;dashed=0;html=1;strokeColor=none;fillColor=#505050;labelPosition=right;verticalLabelPosition=center;verticalAlign=top;outlineConnect=0;align=center;shape=mxgraph.office.servers.virtual_server;rounded=1;comic=1;labelBackgroundColor=#000000;fontFamily=Courier New;fontSize=14;fontColor=#FFFFFF;dropTarget=0;" vertex="1" parent="1">
            <mxGeometry x="303.5" y="419" width="28" height="52" as="geometry" />
          </mxCell>
        </UserObject>
        <UserObject label="&lt;b&gt;%machine_name%&lt;br&gt;&lt;br&gt;&lt;p&gt;%primary_nic%&lt;br&gt;%primary_ip%&lt;br&gt;%primary_mac%&lt;br&gt;&lt;br&gt;%range_nic%&lt;br&gt;%range_ip%&lt;br&gt;%range_mac%&lt;/b&gt;" machine_name="DC02" primary_nic="SERVERS" primary_ip="72.15.2.2/24" primary_mac="00:50:56:0f:02:02" range_nic="RANGE" range_ip="192.168.0.4" range_mac="00:50:56:a8:00:04" placeholders="1" id="J6-tEv_VgUpMAA3_UNjC-7">
          <mxCell style="pointerEvents=1;shadow=0;dashed=0;html=1;strokeColor=none;fillColor=#505050;labelPosition=right;verticalLabelPosition=center;verticalAlign=top;outlineConnect=0;align=center;shape=mxgraph.office.servers.virtual_server;rounded=1;comic=1;labelBackgroundColor=#000000;fontFamily=Courier New;fontSize=14;fontColor=#FFFFFF;dropTarget=0;" vertex="1" parent="1">
            <mxGeometry x="486.5" y="419" width="28" height="52" as="geometry" />
          </mxCell>
        </UserObject>
        <UserObject label="&lt;b&gt;%machine_name%&lt;/b&gt;" machine_name="ROUTER.DEFENDED02.DRAGONSLAIR.SYSTEMS" primary_nic="" primary_ip="" primary_mac="" range_nic="" range_ip="" range_mac="" undefined="" placeholders="1" id="J6-tEv_VgUpMAA3_UNjC-8">
          <mxCell style="points=[[0.5,0,0],[1,0.5,0],[0.5,1,0],[0,0.5,0],[0.145,0.145,0],[0.8555,0.145,0],[0.855,0.8555,0],[0.145,0.855,0]];verticalLabelPosition=bottom;html=1;verticalAlign=top;aspect=fixed;align=center;pointerEvents=1;shape=mxgraph.cisco19.rect;prIcon=router;fillColor=#FAFAFA;strokeColor=#005073;fontFamily=Courier New;labelBackgroundColor=#000000;fontColor=#FFFFFF;fontStyle=1;fontSize=14;" vertex="1" parent="1">
            <mxGeometry x="933.5" y="153" width="50" height="50" as="geometry" />
          </mxCell>
        </UserObject>
        <UserObject label="&lt;b&gt;%machine_name%&lt;/b&gt;" machine_name="DMZ.DEFENDED02.DRAGONSLAIR.SYSTEMS" primary_nic="" primary_ip="" primary_mac="" range_nic="" range_ip="" range_mac="" undefined="" placeholders="1" id="J6-tEv_VgUpMAA3_UNjC-9">
          <mxCell style="points=[[0.5,0,0],[1,0.5,0],[0.5,1,0],[0,0.5,0],[0.145,0.145,0],[0.8555,0.145,0],[0.855,0.8555,0],[0.145,0.855,0]];verticalLabelPosition=bottom;html=1;verticalAlign=top;aspect=fixed;align=center;pointerEvents=1;shape=mxgraph.cisco19.rect;prIcon=router;fillColor=#FAFAFA;strokeColor=#005073;fontFamily=Courier New;labelBackgroundColor=#000000;fontColor=#FFFFFF;fontStyle=1;fontSize=14;" vertex="1" parent="1">
            <mxGeometry x="754" y="286" width="50" height="50" as="geometry" />
          </mxCell>
        </UserObject>
        <UserObject label="&lt;b&gt;%machine_name%&lt;/b&gt;" machine_name="SERVERS.DEFENDED02.DRAGONSLAIR.SYSTEMS" primary_nic="" primary_ip="" primary_mac="" range_nic="" range_ip="" range_mac="" undefined="" placeholders="1" id="J6-tEv_VgUpMAA3_UNjC-10">
          <mxCell style="points=[[0.5,0,0],[1,0.5,0],[0.5,1,0],[0,0.5,0],[0.145,0.145,0],[0.8555,0.145,0],[0.855,0.8555,0],[0.145,0.855,0]];verticalLabelPosition=bottom;html=1;verticalAlign=top;aspect=fixed;align=center;pointerEvents=1;shape=mxgraph.cisco19.rect;prIcon=router;fillColor=#FAFAFA;strokeColor=#005073;fontFamily=Courier New;labelBackgroundColor=#000000;fontColor=#FFFFFF;fontStyle=1;fontSize=14;" vertex="1" parent="1">
            <mxGeometry x="1096" y="286" width="50" height="50" as="geometry" />
          </mxCell>
        </UserObject>
        <UserObject label="&lt;b&gt;%machine_name%&lt;br&gt;&lt;br&gt;&lt;p&gt;%primary_nic%&lt;br&gt;%primary_ip%&lt;br&gt;%primary_mac%&lt;br&gt;&lt;br&gt;%range_nic%&lt;br&gt;%range_ip%&lt;br&gt;%range_mac%&lt;/b&gt;" machine_name="WEB01" primary_nic="DMZ" primary_ip="82.15.1.1/24" primary_mac="00:50:56:0f:01:01" range_nic="RANGE" range_ip="192.168.0.5" range_mac="00:50:56:a8:00:05" placeholders="1" id="J6-tEv_VgUpMAA3_UNjC-11">
          <mxCell style="pointerEvents=1;shadow=0;dashed=0;html=1;strokeColor=none;fillColor=#505050;labelPosition=right;verticalLabelPosition=center;verticalAlign=top;outlineConnect=0;align=center;shape=mxgraph.office.servers.virtual_server;rounded=1;comic=1;labelBackgroundColor=#000000;fontFamily=Courier New;fontSize=14;fontColor=#FFFFFF;dropTarget=0;" vertex="1" parent="1">
            <mxGeometry x="737" y="419" width="28" height="52" as="geometry" />
          </mxCell>
        </UserObject>
        <UserObject label="&lt;b&gt;%machine_name%&lt;br&gt;&lt;br&gt;&lt;p&gt;%primary_nic%&lt;br&gt;%primary_ip%&lt;br&gt;%primary_mac%&lt;br&gt;&lt;br&gt;%range_nic%&lt;br&gt;%range_ip%&lt;br&gt;%range_mac%&lt;/b&gt;" machine_name="DC01" primary_nic="SERVERS" primary_ip="82.15.2.1/24" primary_mac="00:50:56:0f:02:01" range_nic="RANGE" range_ip="192.168.0.6" range_mac="00:50:56:a8:00:06" placeholders="1" id="J6-tEv_VgUpMAA3_UNjC-12">
          <mxCell style="pointerEvents=1;shadow=0;dashed=0;html=1;strokeColor=none;fillColor=#505050;labelPosition=right;verticalLabelPosition=center;verticalAlign=top;outlineConnect=0;align=center;shape=mxgraph.office.servers.virtual_server;rounded=1;comic=1;labelBackgroundColor=#000000;fontFamily=Courier New;fontSize=14;fontColor=#FFFFFF;dropTarget=0;" vertex="1" parent="1">
            <mxGeometry x="987.5" y="419" width="28" height="52" as="geometry" />
          </mxCell>
        </UserObject>
        <UserObject label="&lt;b&gt;%machine_name%&lt;br&gt;&lt;br&gt;&lt;p&gt;%primary_nic%&lt;br&gt;%primary_ip%&lt;br&gt;%primary_mac%&lt;br&gt;&lt;br&gt;%range_nic%&lt;br&gt;%range_ip%&lt;br&gt;%range_mac%&lt;/b&gt;" machine_name="DC02" primary_nic="SERVERS" primary_ip="82.15.2.2/24" primary_mac="00:50:56:0f:02:02" range_nic="RANGE" range_ip="192.168.0.7" range_mac="00:50:56:a8:00:07" placeholders="1" id="J6-tEv_VgUpMAA3_UNjC-13">
          <mxCell style="pointerEvents=1;shadow=0;dashed=0;html=1;strokeColor=none;fillColor=#505050;labelPosition=right;verticalLabelPosition=center;verticalAlign=top;outlineConnect=0;align=center;shape=mxgraph.office.servers.virtual_server;rounded=1;comic=1;labelBackgroundColor=#000000;fontFamily=Courier New;fontSize=14;fontColor=#FFFFFF;dropTarget=0;" vertex="1" parent="1">
            <mxGeometry x="1170.5" y="419" width="28" height="52" as="geometry" />
          </mxCell>
        </UserObject>
        <mxCell id="J6-tEv_VgUpMAA3_UNjC-14" value="" style="edgeStyle=orthogonalEdgeStyle;rounded=0;orthogonalLoop=1;jettySize=auto;html=1;exitX=0.5;exitY=1;exitDx=0;exitDy=0;exitPerimeter=0;entryX=0.5;entryY=0;entryDx=0;entryDy=0;strokeWidth=4;" edge="1" parent="1" source="J6-tEv_VgUpMAA3_UNjC-1" target="J6-tEv_VgUpMAA3_UNjC-2">
          <mxGeometry relative="1" as="geometry" />
        </mxCell>
        <mxCell id="J6-tEv_VgUpMAA3_UNjC-15" value="" style="edgeStyle=orthogonalEdgeStyle;rounded=0;orthogonalLoop=1;jettySize=auto;html=1;exitX=0.5;exitY=1;exitDx=0;exitDy=0;exitPerimeter=0;entryX=0.5;entryY=0;entryDx=0;entryDy=0;strokeWidth=4;" edge="1" parent="1" source="J6-tEv_VgUpMAA3_UNjC-2" target="J6-tEv_VgUpMAA3_UNjC-3">
          <mxGeometry relative="1" as="geometry" />
        </mxCell>
        <mxCell id="J6-tEv_VgUpMAA3_UNjC-16" value="" style="edgeStyle=orthogonalEdgeStyle;rounded=0;orthogonalLoop=1;jettySize=auto;html=1;exitX=0.5;exitY=1;exitDx=0;exitDy=0;exitPerimeter=0;entryX=0.5;entryY=0;entryDx=0;entryDy=0;strokeWidth=4;" edge="1" parent="1" source="J6-tEv_VgUpMAA3_UNjC-2" target="J6-tEv_VgUpMAA3_UNjC-4">
          <mxGeometry relative="1" as="geometry" />
        </mxCell>
        <mxCell id="J6-tEv_VgUpMAA3_UNjC-17" value="" style="edgeStyle=orthogonalEdgeStyle;rounded=0;orthogonalLoop=1;jettySize=auto;html=1;exitX=0.5;exitY=1;exitDx=0;exitDy=0;exitPerimeter=0;entryX=0.5;entryY=0;entryDx=0;entryDy=0;strokeWidth=4;" edge="1" parent="1" source="J6-tEv_VgUpMAA3_UNjC-3" target="J6-tEv_VgUpMAA3_UNjC-5">
          <mxGeometry relative="1" as="geometry" />
        </mxCell>
        <mxCell id="J6-tEv_VgUpMAA3_UNjC-18" value="" style="edgeStyle=orthogonalEdgeStyle;rounded=0;orthogonalLoop=1;jettySize=auto;html=1;exitX=0.5;exitY=1;exitDx=0;exitDy=0;exitPerimeter=0;entryX=0.5;entryY=0;entryDx=0;entryDy=0;strokeWidth=4;" edge="1" parent="1" source="J6-tEv_VgUpMAA3_UNjC-4" target="J6-tEv_VgUpMAA3_UNjC-6">
          <mxGeometry relative="1" as="geometry" />
        </mxCell>
        <mxCell id="J6-tEv_VgUpMAA3_UNjC-19" value="" style="edgeStyle=orthogonalEdgeStyle;rounded=0;orthogonalLoop=1;jettySize=auto;html=1;exitX=0.5;exitY=1;exitDx=0;exitDy=0;exitPerimeter=0;entryX=0.5;entryY=0;entryDx=0;entryDy=0;strokeWidth=4;" edge="1" parent="1" source="J6-tEv_VgUpMAA3_UNjC-4" target="J6-tEv_VgUpMAA3_UNjC-7">
          <mxGeometry relative="1" as="geometry" />
        </mxCell>
        <mxCell id="J6-tEv_VgUpMAA3_UNjC-20" value="" style="edgeStyle=orthogonalEdgeStyle;rounded=0;orthogonalLoop=1;jettySize=auto;html=1;exitX=0.5;exitY=1;exitDx=0;exitDy=0;exitPerimeter=0;entryX=0.5;entryY=0;entryDx=0;entryDy=0;strokeWidth=4;" edge="1" parent="1" source="J6-tEv_VgUpMAA3_UNjC-1" target="J6-tEv_VgUpMAA3_UNjC-8">
          <mxGeometry relative="1" as="geometry" />
        </mxCell>
        <mxCell id="J6-tEv_VgUpMAA3_UNjC-21" value="" style="edgeStyle=orthogonalEdgeStyle;rounded=0;orthogonalLoop=1;jettySize=auto;html=1;exitX=0.5;exitY=1;exitDx=0;exitDy=0;exitPerimeter=0;entryX=0.5;entryY=0;entryDx=0;entryDy=0;strokeWidth=4;" edge="1" parent="1" source="J6-tEv_VgUpMAA3_UNjC-8" target="J6-tEv_VgUpMAA3_UNjC-9">
          <mxGeometry relative="1" as="geometry" />
        </mxCell>
        <mxCell id="J6-tEv_VgUpMAA3_UNjC-22" value="" style="edgeStyle=orthogonalEdgeStyle;rounded=0;orthogonalLoop=1;jettySize=auto;html=1;exitX=0.5;exitY=1;exitDx=0;exitDy=0;exitPerimeter=0;entryX=0.5;entryY=0;entryDx=0;entryDy=0;strokeWidth=4;" edge="1" parent="1" source="J6-tEv_VgUpMAA3_UNjC-8" target="J6-tEv_VgUpMAA3_UNjC-10">
          <mxGeometry relative="1" as="geometry" />
        </mxCell>
        <mxCell id="J6-tEv_VgUpMAA3_UNjC-23" value="" style="edgeStyle=orthogonalEdgeStyle;rounded=0;orthogonalLoop=1;jettySize=auto;html=1;exitX=0.5;exitY=1;exitDx=0;exitDy=0;exitPerimeter=0;entryX=0.5;entryY=0;entryDx=0;entryDy=0;strokeWidth=4;" edge="1" parent="1" source="J6-tEv_VgUpMAA3_UNjC-9" target="J6-tEv_VgUpMAA3_UNjC-11">
          <mxGeometry relative="1" as="geometry" />
        </mxCell>
        <mxCell id="J6-tEv_VgUpMAA3_UNjC-24" value="" style="edgeStyle=orthogonalEdgeStyle;rounded=0;orthogonalLoop=1;jettySize=auto;html=1;exitX=0.5;exitY=1;exitDx=0;exitDy=0;exitPerimeter=0;entryX=0.5;entryY=0;entryDx=0;entryDy=0;strokeWidth=4;" edge="1" parent="1" source="J6-tEv_VgUpMAA3_UNjC-10" target="J6-tEv_VgUpMAA3_UNjC-12">
          <mxGeometry relative="1" as="geometry" />
        </mxCell>
        <mxCell id="J6-tEv_VgUpMAA3_UNjC-25" value="" style="edgeStyle=orthogonalEdgeStyle;rounded=0;orthogonalLoop=1;jettySize=auto;html=1;exitX=0.5;exitY=1;exitDx=0;exitDy=0;exitPerimeter=0;entryX=0.5;entryY=0;entryDx=0;entryDy=0;strokeWidth=4;" edge="1" parent="1" source="J6-tEv_VgUpMAA3_UNjC-10" target="J6-tEv_VgUpMAA3_UNjC-13">
          <mxGeometry relative="1" as="geometry" />
        </mxCell>
      </root>
    </mxGraphModel>
  </diagram>
</mxfile>
